<?xml version="1.0" encoding="utf-8"?>
<!-- Generator: Adobe Illustrator 19.2.1, SVG Export Plug-In . SVG Version: 6.00 Build 0)  -->
<svg version="1.1" id="layer" xmlns="http://www.w3.org/2000/svg" xmlns:xlink="http://www.w3.org/1999/xlink" x="0px" y="0px"
	 viewBox="0 0 652 652" style="enable-background:new 0 0 652 652;" xml:space="preserve">
<g>
	<path d="M218.8,267.2c-1.5-0.2-2.7-0.2-4.1-0.2c-1.4,0-149.4,0-149.4,0L54,290.8c0,0,115.9,0,118.1,0c7.7,0,7.1,1,2,7.7
		c-1.5,1.9-3.9,3.4-13.3,5.4c-1.1,0.2-99.7,19.8-100.4,19.9c-12.5,2.8-20.5,9.3-23.8,16.4c-1.8,4-16.5,35.2-16.6,35.2h183.8l11.2-24
		c0,0-129.9,0-129.9,0c3.1-8.4,4.6-8.1,11.5-9.5c0.2-0.1,94.5-18.6,94.8-18.6c20.5-4.3,26.2-11.6,29.8-18.2
		c1.5-2.8,8.4-17.5,10-21.8c1-2.8,0.9-6.4-1-9.6C228.4,270.6,224.7,267.9,218.8,267.2"/>
	<path d="M574.9,266.6c0,0-30.6,60.6-35,68.4c-9.8,17.7-22.1,17.7-28.3,17.7c-5.8,0-44.4,0.1-44.4,0.1c-9.4,0.1-26.7-1.4-20-19
		c1.7-4.4,30.9-67.1,30.9-67.1h-45.2c0,0-28.2,59.6-30.2,64.3c-11.4,27.4,5.2,45.3,26.2,45.7c3.4,0.1,89.1,0,89.1,0
		s16.5-0.5,20.9-1.1c9.5-1.2,18.8-4,27.1-9.8c13.3-9.3,23.6-34.4,23.6-34.4l30.4-64.7H574.9z"/>
</g>
<polygon points="345.8,322.1 409.9,375.9 359,375.9 317.8,341.3 267.3,375.9 207.7,375.9 291.5,319.4 229.5,266.9 280.1,266.9 
	319.7,300.2 368.2,266.9 427.8,266.9 "/>
</svg>
